<mxfile host="app.diagrams.net" modified="2023-10-05T04:44:06.287Z" agent="Mozilla/5.0 (Windows NT 10.0; Win64; x64) AppleWebKit/537.36 (KHTML, like Gecko) Chrome/116.0.5845.2271 YaBrowser/23.9.0.2271 Yowser/2.5 Safari/537.36" etag="ssX_ZRRRy3YB6dCIBoRx" version="22.0.2" type="device">
  <diagram name="Страница — 1" id="tPoT4hHvwxfY3_mr3B1R">
    <mxGraphModel dx="1002" dy="575" grid="0" gridSize="10" guides="1" tooltips="1" connect="1" arrows="1" fold="1" page="1" pageScale="1" pageWidth="827" pageHeight="1169" math="0" shadow="0">
      <root>
        <mxCell id="0" />
        <mxCell id="1" parent="0" />
        <mxCell id="6rCbfs4mVRWqjugRPmAf-7" value="&lt;b&gt;Администратор&lt;/b&gt;" style="shape=umlActor;verticalLabelPosition=bottom;verticalAlign=top;html=1;outlineConnect=0;" vertex="1" parent="1">
          <mxGeometry x="40" y="227" width="47" height="96" as="geometry" />
        </mxCell>
        <mxCell id="6rCbfs4mVRWqjugRPmAf-11" value="&lt;b&gt;&lt;font style=&quot;font-size: 14px;&quot;&gt;Создание хендбука&lt;/font&gt;&lt;/b&gt;" style="ellipse;whiteSpace=wrap;html=1;" vertex="1" parent="1">
          <mxGeometry x="231" y="172" width="147" height="80" as="geometry" />
        </mxCell>
        <mxCell id="6rCbfs4mVRWqjugRPmAf-13" value="" style="endArrow=none;html=1;rounded=0;exitX=1;exitY=0.3333333333333333;exitDx=0;exitDy=0;exitPerimeter=0;entryX=0;entryY=0.5;entryDx=0;entryDy=0;" edge="1" parent="1" source="6rCbfs4mVRWqjugRPmAf-7" target="6rCbfs4mVRWqjugRPmAf-11">
          <mxGeometry width="50" height="50" relative="1" as="geometry">
            <mxPoint x="386" y="323" as="sourcePoint" />
            <mxPoint x="436" y="273" as="targetPoint" />
          </mxGeometry>
        </mxCell>
        <mxCell id="6rCbfs4mVRWqjugRPmAf-14" value="&lt;b&gt;&lt;font style=&quot;font-size: 14px;&quot;&gt;Редактирование существующего хендбука&lt;/font&gt;&lt;/b&gt;" style="ellipse;whiteSpace=wrap;html=1;" vertex="1" parent="1">
          <mxGeometry x="229" y="301" width="156" height="84" as="geometry" />
        </mxCell>
        <mxCell id="6rCbfs4mVRWqjugRPmAf-16" value="" style="endArrow=none;html=1;rounded=0;exitX=1;exitY=0.3333333333333333;exitDx=0;exitDy=0;exitPerimeter=0;entryX=0;entryY=0.5;entryDx=0;entryDy=0;" edge="1" parent="1" source="6rCbfs4mVRWqjugRPmAf-7" target="6rCbfs4mVRWqjugRPmAf-14">
          <mxGeometry width="50" height="50" relative="1" as="geometry">
            <mxPoint x="97" y="269" as="sourcePoint" />
            <mxPoint x="241" y="222" as="targetPoint" />
          </mxGeometry>
        </mxCell>
        <mxCell id="6rCbfs4mVRWqjugRPmAf-17" value="&lt;b&gt;&lt;font style=&quot;font-size: 14px;&quot;&gt;Удаление хендбука&lt;/font&gt;&lt;/b&gt;" style="ellipse;whiteSpace=wrap;html=1;" vertex="1" parent="1">
          <mxGeometry x="237" y="420" width="156" height="84" as="geometry" />
        </mxCell>
        <mxCell id="6rCbfs4mVRWqjugRPmAf-18" value="" style="endArrow=none;html=1;rounded=0;exitX=1;exitY=0.3333333333333333;exitDx=0;exitDy=0;exitPerimeter=0;entryX=0;entryY=0.5;entryDx=0;entryDy=0;" edge="1" parent="1" source="6rCbfs4mVRWqjugRPmAf-7" target="6rCbfs4mVRWqjugRPmAf-17">
          <mxGeometry width="50" height="50" relative="1" as="geometry">
            <mxPoint x="97" y="269" as="sourcePoint" />
            <mxPoint x="239" y="353" as="targetPoint" />
          </mxGeometry>
        </mxCell>
        <mxCell id="6rCbfs4mVRWqjugRPmAf-19" value="&lt;b style=&quot;font-size: 14px;&quot;&gt;Добавление&lt;br&gt;дополнительных разделов и информации&lt;/b&gt;" style="ellipse;whiteSpace=wrap;html=1;" vertex="1" parent="1">
          <mxGeometry x="480" y="92" width="206" height="87" as="geometry" />
        </mxCell>
        <mxCell id="6rCbfs4mVRWqjugRPmAf-20" value="" style="endArrow=none;html=1;rounded=0;entryX=0;entryY=0.5;entryDx=0;entryDy=0;" edge="1" parent="1" target="6rCbfs4mVRWqjugRPmAf-19">
          <mxGeometry width="50" height="50" relative="1" as="geometry">
            <mxPoint x="375" y="212" as="sourcePoint" />
            <mxPoint x="241" y="222" as="targetPoint" />
            <Array as="points">
              <mxPoint x="429" y="174" />
            </Array>
          </mxGeometry>
        </mxCell>
        <mxCell id="6rCbfs4mVRWqjugRPmAf-21" value="&lt;b&gt;&lt;font style=&quot;font-size: 14px;&quot;&gt;включить&lt;/font&gt;&lt;/b&gt;" style="text;html=1;strokeColor=none;fillColor=none;align=center;verticalAlign=middle;whiteSpace=wrap;rounded=0;rotation=-30;" vertex="1" parent="1">
          <mxGeometry x="388" y="142" width="60" height="30" as="geometry" />
        </mxCell>
      </root>
    </mxGraphModel>
  </diagram>
</mxfile>
